<?xml version="1.0" standalone="no"?>
<!DOCTYPE svg PUBLIC "-//W3C//DTD SVG 20010904//EN"
 "http://www.w3.org/TR/2001/REC-SVG-20010904/DTD/svg10.dtd">
<svg version="1.0" xmlns="http://www.w3.org/2000/svg"
 width="240.000000pt" height="195.000000pt" viewBox="0 0 240.000000 195.000000"
 preserveAspectRatio="xMidYMid meet">

<g transform="translate(0.000000,195.000000) scale(0.100000,-0.100000)"
fill="#000000" stroke="none">
<path d="M1084 1806 c-321 -52 -512 -198 -664 -505 -76 -153 -107 -305 -97
-485 24 -448 220 -666 633 -706 61 -5 196 -6 354 0 140 5 362 12 493 16 161 5
237 11 237 18 0 6 -14 236 -30 511 -33 556 -40 606 -110 752 -94 193 -251 327
-450 383 -96 26 -258 34 -366 16z m795 -1438 c1 -5 -56 -8 -127 -8 l-127 0
-258 515 c-141 283 -257 522 -257 530 0 8 28 70 61 138 l62 122 323 -645 c177
-355 323 -648 323 -652z m-782 768 l62 -125 -160 -325 -160 -326 -129 0 -129
0 133 272 c190 391 310 628 316 628 3 0 33 -56 67 -124z m256 -451 c59 -27
107 -52 107 -56 0 -3 -50 -29 -111 -58 l-111 -51 -101 47 c-56 26 -106 50
-111 54 -8 7 202 120 215 116 3 -1 54 -24 112 -52z"/>
</g>
</svg>
